{
	"patcher" : 	{
		"fileversion" : 1,
		"appversion" : 		{
			"major" : 8,
			"minor" : 0,
			"revision" : 0,
			"architecture" : "x64",
			"modernui" : 1
		}
,
		"rect" : [ 400.0, 79.0, 898.0, 787.0 ],
		"bglocked" : 0,
		"openinpresentation" : 0,
		"default_fontsize" : 12.0,
		"default_fontface" : 0,
		"default_fontname" : "Arial",
		"gridonopen" : 1,
		"gridsize" : [ 15.0, 15.0 ],
		"gridsnaponopen" : 1,
		"objectsnaponopen" : 1,
		"statusbarvisible" : 2,
		"toolbarvisible" : 1,
		"lefttoolbarpinned" : 0,
		"toptoolbarpinned" : 0,
		"righttoolbarpinned" : 0,
		"bottomtoolbarpinned" : 0,
		"toolbars_unpinned_last_save" : 0,
		"tallnewobj" : 0,
		"boxanimatetime" : 200,
		"enablehscroll" : 1,
		"enablevscroll" : 1,
		"devicewidth" : 0.0,
		"description" : "",
		"digest" : "",
		"tags" : "",
		"style" : "",
		"subpatcher_template" : "Default Max 7",
		"boxes" : [ 			{
				"box" : 				{
					"id" : "obj-32",
					"maxclass" : "newobj",
					"numinlets" : 1,
					"numoutlets" : 1,
					"outlettype" : [ "" ],
					"patching_rect" : [ 207.0, 439.0, 100.0, 22.0 ],
					"presentation_rect" : [ 207.0, 439.0, 100.0, 22.0 ],
					"style" : ""
				}

			}
, 			{
				"box" : 				{
					"id" : "obj-31",
					"maxclass" : "newobj",
					"numinlets" : 1,
					"numoutlets" : 1,
					"outlettype" : [ "" ],
					"patching_rect" : [ 184.0, 482.0, 54.0, 22.0 ],
					"presentation_rect" : [ 184.0, 482.0, 54.0, 22.0 ],
					"style" : "",
					"text" : "o.accum"
				}

			}
, 			{
				"box" : 				{
					"id" : "obj-30",
					"maxclass" : "newobj",
					"numinlets" : 1,
					"numoutlets" : 1,
					"outlettype" : [ "" ],
					"patching_rect" : [ 94.0, 197.0, 54.0, 22.0 ],
					"presentation_rect" : [ 94.0, 197.0, 54.0, 22.0 ],
					"style" : "",
					"text" : "o.accum"
				}

			}
, 			{
				"box" : 				{
					"id" : "obj-29",
					"maxclass" : "newobj",
					"numinlets" : 0,
					"numoutlets" : 1,
					"outlettype" : [ "" ],
					"patching_rect" : [ 214.0, 135.0, 117.0, 22.0 ],
					"presentation_rect" : [ 214.0, 135.0, 117.0, 22.0 ],
					"style" : "",
					"text" : "cnmat.o.io.keyboard"
				}

			}
, 			{
				"box" : 				{
					"id" : "obj-25",
					"maxclass" : "newobj",
					"numinlets" : 0,
					"numoutlets" : 1,
					"outlettype" : [ "FullPacket" ],
					"patching_rect" : [ 94.0, 140.0, 103.0, 22.0 ],
					"presentation_rect" : [ 94.0, 140.0, 103.0, 22.0 ],
					"style" : "",
					"text" : "cnmat.o.io.mouse"
				}

			}
, 			{
				"box" : 				{
					"fontface" : 0,
					"fontsize" : 12.0,
					"id" : "obj-12",
					"linecount" : 6,
					"maxclass" : "o.expr.codebox",
					"numinlets" : 1,
					"numoutlets" : 2,
					"outlettype" : [ "FullPacket", "FullPacket" ],
					"patching_rect" : [ 94.0, 268.0, 637.0, 100.0 ],
					"presentation_rect" : [ 94.0, 268.0, 637.0, 100.0 ],
					"text" : "if( /keystate == \"down\",\n  progn(\n    /pathstr = \"M\"+ /horizontal +\",\"+ /vertical + \"a30,30,0,0,0,0-60a30,30,0,0,0,0,60\",\n    /svgdraw/1/draw/path = [ /ascii, /pathstr ]\n  )\n)"
				}

			}
, 			{
				"box" : 				{
					"fontface" : 0,
					"fontsize" : 12.0,
					"id" : "obj-11",
					"maxclass" : "o.compose",
					"numinlets" : 2,
					"numoutlets" : 1,
					"outlettype" : [ "" ],
					"patching_rect" : [ 296.5, 528.0, 201.0, 24.0 ],
					"presentation_rect" : [ 296.5, 528.0, 201.0, 24.0 ],
					"saved_bundle_data" : [ 35, 98, 117, 110, 100, 108, 101, 0, 0, 0, 0, 0, 0, 0, 0, 0, 0, 0, 0, 28, 47, 115, 118, 103, 100, 114, 97, 119, 47, 49, 47, 114, 101, 109, 111, 118, 101, 0, 0, 0, 44, 115, 0, 0, 102, 111, 111, 0 ],
					"saved_bundle_length" : 48,
					"text" : "/svgdraw/1/remove : \"foo\""
				}

			}
, 			{
				"box" : 				{
					"fontface" : 0,
					"fontsize" : 12.0,
					"id" : "obj-8",
					"maxclass" : "o.compose",
					"numinlets" : 2,
					"numoutlets" : 1,
					"outlettype" : [ "" ],
					"patching_rect" : [ 296.5, 576.0, 553.0, 24.0 ],
					"presentation_linecount" : 5,
					"presentation_rect" : [ 296.5, 576.0, 553.0, 24.0 ],
					"saved_bundle_data" : [ 35, 98, 117, 110, 100, 108, 101, 0, 0, 0, 0, 0, 0, 0, 0, 0, 0, 0, 0, 76, 47, 115, 118, 103, 100, 114, 97, 119, 47, 49, 47, 100, 114, 97, 119, 47, 112, 97, 116, 104, 0, 0, 0, 0, 44, 115, 115, 0, 102, 111, 111, 0, 77, 51, 53, 44, 54, 53, 97, 51, 48, 44, 51, 48, 44, 48, 44, 48, 44, 48, 44, 48, 45, 54, 48, 97, 51, 48, 44, 51, 48, 44, 48, 44, 48, 44, 48, 44, 48, 44, 54, 48, 0, 0, 0, 0 ],
					"saved_bundle_length" : 96,
					"text" : "/svgdraw/1/draw/path : [\"foo\", \"M35,65a30,30,0,0,0,0-60a30,30,0,0,0,0,60\"]"
				}

			}
, 			{
				"box" : 				{
					"id" : "obj-1",
					"maxclass" : "newobj",
					"numinlets" : 1,
					"numoutlets" : 0,
					"patching_rect" : [ 94.0, 663.200012, 144.0, 22.0 ],
					"presentation_rect" : [ 94.0, 663.200012, 144.0, 22.0 ],
					"style" : "",
					"text" : "udpsend localhost 4001"
				}

			}
 ],
		"lines" : [ 			{
				"patchline" : 				{
					"destination" : [ "obj-1", 0 ],
					"source" : [ "obj-11", 0 ]
				}

			}
, 			{
				"patchline" : 				{
					"destination" : [ "obj-1", 0 ],
					"source" : [ "obj-12", 0 ]
				}

			}
, 			{
				"patchline" : 				{
					"destination" : [ "obj-30", 0 ],
					"source" : [ "obj-25", 0 ]
				}

			}
, 			{
				"patchline" : 				{
					"destination" : [ "obj-30", 0 ],
					"source" : [ "obj-29", 0 ]
				}

			}
, 			{
				"patchline" : 				{
					"destination" : [ "obj-12", 0 ],
					"source" : [ "obj-30", 0 ]
				}

			}
, 			{
				"patchline" : 				{
					"destination" : [ "obj-1", 0 ],
					"source" : [ "obj-8", 0 ]
				}

			}
 ],
		"dependency_cache" : [ 			{
				"name" : "cnmat.o.io.mouse.maxpat",
				"bootpath" : "~/Documents/Max 8/Packages/Music-and-Computing/patchers/io",
				"patcherrelativepath" : "../../../../Max 8/Packages/Music-and-Computing/patchers/io",
				"type" : "JSON",
				"implicit" : 1
			}
, 			{
				"name" : "cnmat.loadbang.maxpat",
				"bootpath" : "~/Documents/Max 8/Packages/Music-and-Computing/patchers/internal",
				"patcherrelativepath" : "../../../../Max 8/Packages/Music-and-Computing/patchers/internal",
				"type" : "JSON",
				"implicit" : 1
			}
, 			{
				"name" : "cnmat.o.io.keyboard.maxpat",
				"bootpath" : "~/Documents/Max 8/Packages/Music-and-Computing/patchers/io",
				"patcherrelativepath" : "../../../../Max 8/Packages/Music-and-Computing/patchers/io",
				"type" : "JSON",
				"implicit" : 1
			}
, 			{
				"name" : "o.accum.maxpat",
				"bootpath" : "~/Documents/dev-lib/CNMAT-odot/patchers/namespace",
				"patcherrelativepath" : "../../../CNMAT-odot/patchers/namespace",
				"type" : "JSON",
				"implicit" : 1
			}
, 			{
				"name" : "o.compose.mxo",
				"type" : "iLaX"
			}
, 			{
				"name" : "o.expr.codebox.mxo",
				"type" : "iLaX"
			}
, 			{
				"name" : "o.pack.mxo",
				"type" : "iLaX"
			}
, 			{
				"name" : "o.union.mxo",
				"type" : "iLaX"
			}
, 			{
				"name" : "o.var.mxo",
				"type" : "iLaX"
			}
, 			{
				"name" : "o.cond.mxo",
				"type" : "iLaX"
			}
, 			{
				"name" : "o.timetag.mxo",
				"type" : "iLaX"
			}
, 			{
				"name" : "o.change.mxo",
				"type" : "iLaX"
			}
, 			{
				"name" : "o.route.mxo",
				"type" : "iLaX"
			}
 ],
		"autosave" : 0,
		"bgfillcolor_type" : "gradient",
		"bgfillcolor_color1" : [ 0.376471, 0.384314, 0.4, 1.0 ],
		"bgfillcolor_color2" : [ 0.290196, 0.309804, 0.301961, 1.0 ],
		"bgfillcolor_color" : [ 0.290196, 0.309804, 0.301961, 1.0 ],
		"bgfillcolor_angle" : 270.0,
		"bgfillcolor_proportion" : 0.39
	}

}
