{
	"patcher" : 	{
		"fileversion" : 1,
		"appversion" : 		{
			"major" : 8,
			"minor" : 0,
			"revision" : 0,
			"architecture" : "x64",
			"modernui" : 1
		}
,
		"classnamespace" : "box",
		"rect" : [ 157.0, 79.0, 1103.0, 787.0 ],
		"bglocked" : 0,
		"openinpresentation" : 0,
		"default_fontsize" : 12.0,
		"default_fontface" : 0,
		"default_fontname" : "Arial",
		"gridonopen" : 1,
		"gridsize" : [ 15.0, 15.0 ],
		"gridsnaponopen" : 1,
		"objectsnaponopen" : 1,
		"statusbarvisible" : 2,
		"toolbarvisible" : 1,
		"lefttoolbarpinned" : 0,
		"toptoolbarpinned" : 0,
		"righttoolbarpinned" : 0,
		"bottomtoolbarpinned" : 0,
		"toolbars_unpinned_last_save" : 0,
		"tallnewobj" : 0,
		"boxanimatetime" : 200,
		"enablehscroll" : 1,
		"enablevscroll" : 1,
		"devicewidth" : 0.0,
		"description" : "",
		"digest" : "",
		"tags" : "",
		"style" : "",
		"subpatcher_template" : "",
		"boxes" : [ 			{
				"box" : 				{
					"fontface" : 0,
					"fontsize" : 12.0,
					"id" : "obj-20",
					"maxclass" : "o.compose",
					"numinlets" : 2,
					"numoutlets" : 1,
					"outlettype" : [ "" ],
					"patching_rect" : [ 697.0, 520.0, 201.0, 24.0 ],
					"presentation_rect" : [ 697.0, 520.0, 201.0, 24.0 ],
					"saved_bundle_data" : [ 35, 98, 117, 110, 100, 108, 101, 0, 0, 0, 0, 0, 0, 0, 0, 0, 0, 0, 0, 32, 47, 115, 118, 103, 100, 114, 97, 119, 47, 49, 47, 109, 117, 108, 116, 105, 116, 111, 117, 99, 104, 0, 0, 0, 44, 105, 0, 0, 0, 0, 0, 1 ],
					"saved_bundle_length" : 52,
					"text" : "/svgdraw/1/multitouch : 1"
				}

			}
, 			{
				"box" : 				{
					"fontface" : 0,
					"fontsize" : 12.0,
					"id" : "obj-19",
					"maxclass" : "o.compose",
					"numinlets" : 2,
					"numoutlets" : 1,
					"outlettype" : [ "" ],
					"patching_rect" : [ 697.0, 548.0, 201.0, 24.0 ],
					"presentation_linecount" : 2,
					"presentation_rect" : [ 697.0, 548.0, 201.0, 24.0 ],
					"saved_bundle_data" : [ 35, 98, 117, 110, 100, 108, 101, 0, 0, 0, 0, 0, 0, 0, 0, 0, 0, 0, 0, 32, 47, 115, 118, 103, 100, 114, 97, 119, 47, 49, 47, 109, 117, 108, 116, 105, 116, 111, 117, 99, 104, 0, 0, 0, 44, 105, 0, 0, 0, 0, 0, 0 ],
					"saved_bundle_length" : 52,
					"text" : "/svgdraw/1/multitouch : 0"
				}

			}
, 			{
				"box" : 				{
					"fontface" : 0,
					"fontsize" : 12.0,
					"id" : "obj-18",
					"linecount" : 3,
					"maxclass" : "o.compose",
					"numinlets" : 2,
					"numoutlets" : 1,
					"outlettype" : [ "" ],
					"patching_rect" : [ 545.0, 166.5, 150.0, 51.0 ],
					"presentation_linecount" : 3,
					"presentation_rect" : [ 545.0, 166.5, 150.0, 51.0 ],
					"saved_bundle_data" : [ 35, 98, 117, 110, 100, 108, 101, 0, 60, 0, 0, 0, 0, 0, 0, 0, 0, 0, 0, 40, 47, 115, 118, 103, 100, 114, 97, 119, 47, 49, 47, 100, 114, 97, 119, 105, 110, 103, 47, 109, 111, 117, 115, 101, 88, 89, 0, 0, 44, 102, 102, 0, 68, 12, -128, 0, 67, 120, 0, 0 ],
					"saved_bundle_length" : 60,
					"text" : "/svgdraw/1/drawing/mouseXY : [562., 248.]"
				}

			}
, 			{
				"box" : 				{
					"fontface" : 0,
					"fontsize" : 12.0,
					"id" : "obj-17",
					"linecount" : 2,
					"maxclass" : "o.compose",
					"numinlets" : 2,
					"numoutlets" : 1,
					"outlettype" : [ "" ],
					"patching_rect" : [ 713.0, 625.0, 186.0, 38.0 ],
					"presentation_linecount" : 3,
					"presentation_rect" : [ 713.0, 625.0, 186.0, 38.0 ],
					"saved_bundle_data" : [ 35, 98, 117, 110, 100, 108, 101, 0, 0, 0, 0, 0, 0, 0, 0, 0, 0, 0, 0, 48, 47, 115, 118, 103, 100, 114, 97, 119, 47, 49, 47, 48, 47, 100, 114, 97, 119, 47, 99, 105, 114, 99, 108, 101, 0, 0, 0, 0, 44, 102, 102, 105, 0, 0, 0, 0, 67, -57, -128, 0, 68, 92, 0, 0, 0, 0, 0, 20 ],
					"saved_bundle_length" : 68,
					"text" : "/svgdraw/1/0/draw/circle : [399., 880., 20]"
				}

			}
, 			{
				"box" : 				{
					"fontface" : 0,
					"fontsize" : 12.0,
					"id" : "obj-16",
					"linecount" : 9,
					"maxclass" : "o.compose",
					"numinlets" : 2,
					"numoutlets" : 1,
					"outlettype" : [ "" ],
					"patching_rect" : [ 671.0, 288.0, 150.0, 133.0 ],
					"presentation_rect" : [ 671.0, 288.0, 150.0, 133.0 ],
					"saved_bundle_data" : [ 35, 98, 117, 110, 100, 108, 101, 0, 0, 0, 0, 0, 0, 0, 0, 0, 0, 0, 0, 40, 47, 115, 118, 103, 100, 114, 97, 119, 47, 49, 47, 102, 105, 110, 103, 101, 114, 47, 51, 47, 101, 110, 100, 47, 120, 121, 0, 0, 44, 102, 102, 0, 67, -42, 0, 0, 68, 27, 64, 0, 0, 0, 0, 40, 47, 115, 118, 103, 100, 114, 97, 119, 47, 49, 47, 102, 105, 110, 103, 101, 114, 47, 49, 47, 101, 110, 100, 47, 120, 121, 0, 0, 44, 102, 102, 0, 67, -102, 0, 0, 68, 22, 64, 0, 0, 0, 0, 40, 47, 115, 118, 103, 100, 114, 97, 119, 47, 49, 47, 102, 105, 110, 103, 101, 114, 47, 45, 49, 47, 101, 110, 100, 47, 120, 121, 0, 44, 102, 102, 0, 67, 75, 0, 0, 68, 48, 64, 0 ],
					"saved_bundle_length" : 148,
					"text" : "/svgdraw/1/finger/3/end/xy : [428., 621.],\n/svgdraw/1/finger/1/end/xy : [308., 601.],\n/svgdraw/1/finger/-1/end/xy : [203., 705.]"
				}

			}
, 			{
				"box" : 				{
					"fontface" : 0,
					"fontsize" : 12.0,
					"id" : "obj-15",
					"maxclass" : "o.compose",
					"numinlets" : 2,
					"numoutlets" : 1,
					"outlettype" : [ "" ],
					"patching_rect" : [ 417.5, 664.0, 150.0, 24.0 ],
					"presentation_rect" : [ 417.5, 664.0, 150.0, 24.0 ],
					"saved_bundle_data" : [ 35, 98, 117, 110, 100, 108, 101, 0, 0, 0, 0, 0, 0, 0, 0, 0, 0, 0, 0, 24, 47, 115, 118, 103, 100, 114, 97, 119, 47, 49, 47, 99, 108, 101, 97, 114, 0, 0, 0, 0, 44, 0, 0, 0 ],
					"saved_bundle_length" : 44,
					"text" : "/svgdraw/1/clear"
				}

			}
, 			{
				"box" : 				{
					"fontface" : 0,
					"fontsize" : 12.0,
					"id" : "obj-14",
					"linecount" : 5,
					"maxclass" : "o.expr.codebox",
					"numinlets" : 1,
					"numoutlets" : 2,
					"outlettype" : [ "FullPacket", "FullPacket" ],
					"patching_rect" : [ 347.0, 386.0, 291.0, 100.0 ],
					"presentation_linecount" : 5,
					"presentation_rect" : [ 347.0, 386.0, 291.0, 100.0 ],
					"text" : "map(\n  lambda(a,\n    assign(\"/svgdraw/1\"+a+\"/remove\", 1)\n  ), /addrs\n)\n"
				}

			}
, 			{
				"box" : 				{
					"id" : "obj-10",
					"maxclass" : "newobj",
					"numinlets" : 1,
					"numoutlets" : 1,
					"outlettype" : [ "FullPacket" ],
					"patching_rect" : [ 347.0, 344.0, 51.0, 22.0 ],
					"presentation_rect" : [ 347.0, 344.0, 51.0, 22.0 ],
					"text" : "o.flatten"
				}

			}
, 			{
				"box" : 				{
					"fontface" : 0,
					"fontsize" : 12.0,
					"id" : "obj-11",
					"maxclass" : "o.expr.codebox",
					"numinlets" : 1,
					"numoutlets" : 2,
					"outlettype" : [ "FullPacket", "FullPacket" ],
					"patching_rect" : [ 347.0, 292.0, 176.0, 32.0 ],
					"presentation_rect" : [ 347.0, 292.0, 176.0, 32.0 ],
					"text" : "/addrs = getaddresses()"
				}

			}
, 			{
				"box" : 				{
					"id" : "obj-12",
					"maxclass" : "newobj",
					"numinlets" : 1,
					"numoutlets" : 2,
					"outlettype" : [ "", "FullPacket" ],
					"patching_rect" : [ 347.0, 222.0, 141.0, 22.0 ],
					"presentation_rect" : [ 347.0, 222.0, 141.0, 22.0 ],
					"text" : "o.route /svgdraw/1/finger"
				}

			}
, 			{
				"box" : 				{
					"id" : "obj-13",
					"maxclass" : "newobj",
					"numinlets" : 1,
					"numoutlets" : 1,
					"outlettype" : [ "FullPacket" ],
					"patching_rect" : [ 347.0, 254.0, 61.0, 22.0 ],
					"presentation_rect" : [ 347.0, 254.0, 61.0, 22.0 ],
					"text" : "o.explode"
				}

			}
, 			{
				"box" : 				{
					"id" : "obj-9",
					"maxclass" : "newobj",
					"numinlets" : 1,
					"numoutlets" : 2,
					"outlettype" : [ "", "FullPacket" ],
					"patching_rect" : [ 413.0, 113.0, 185.0, 22.0 ],
					"presentation_rect" : [ 413.0, 113.0, 185.0, 22.0 ],
					"text" : "o.select /svgdraw/1/finger/*/move"
				}

			}
, 			{
				"box" : 				{
					"id" : "obj-8",
					"maxclass" : "newobj",
					"numinlets" : 1,
					"numoutlets" : 2,
					"outlettype" : [ "", "FullPacket" ],
					"patching_rect" : [ 128.0, 645.0, 111.0, 22.0 ],
					"presentation_rect" : [ 128.0, 645.0, 111.0, 22.0 ],
					"text" : "o.select /svgdraw/1"
				}

			}
, 			{
				"box" : 				{
					"id" : "obj-7",
					"maxclass" : "newobj",
					"numinlets" : 1,
					"numoutlets" : 3,
					"outlettype" : [ "", "", "FullPacket" ],
					"patching_rect" : [ 128.0, 183.0, 311.0, 22.0 ],
					"presentation_rect" : [ 128.0, 183.0, 311.0, 22.0 ],
					"text" : "o.select /svgdraw/1/finger/*/move /svgdraw/1/finger/*/end"
				}

			}
, 			{
				"box" : 				{
					"id" : "obj-6",
					"maxclass" : "newobj",
					"numinlets" : 1,
					"numoutlets" : 1,
					"outlettype" : [ "FullPacket" ],
					"patching_rect" : [ 128.0, 386.0, 51.0, 22.0 ],
					"presentation_rect" : [ 128.0, 386.0, 51.0, 22.0 ],
					"text" : "o.flatten"
				}

			}
, 			{
				"box" : 				{
					"fontface" : 0,
					"fontsize" : 12.0,
					"id" : "obj-5",
					"maxclass" : "o.expr.codebox",
					"numinlets" : 1,
					"numoutlets" : 2,
					"outlettype" : [ "FullPacket", "FullPacket" ],
					"patching_rect" : [ 128.0, 334.0, 176.0, 32.0 ],
					"presentation_rect" : [ 128.0, 334.0, 176.0, 32.0 ],
					"text" : "/addrs = getaddresses()"
				}

			}
, 			{
				"box" : 				{
					"id" : "obj-4",
					"maxclass" : "newobj",
					"numinlets" : 1,
					"numoutlets" : 2,
					"outlettype" : [ "", "FullPacket" ],
					"patching_rect" : [ 128.0, 245.0, 141.0, 22.0 ],
					"presentation_rect" : [ 128.0, 245.0, 141.0, 22.0 ],
					"text" : "o.route /svgdraw/1/finger"
				}

			}
, 			{
				"box" : 				{
					"id" : "obj-3",
					"maxclass" : "newobj",
					"numinlets" : 1,
					"numoutlets" : 1,
					"outlettype" : [ "FullPacket" ],
					"patching_rect" : [ 128.0, 296.0, 61.0, 22.0 ],
					"presentation_rect" : [ 128.0, 296.0, 61.0, 22.0 ],
					"text" : "o.explode"
				}

			}
, 			{
				"box" : 				{
					"id" : "obj-2",
					"maxclass" : "newobj",
					"numinlets" : 1,
					"numoutlets" : 0,
					"patching_rect" : [ 128.0, 694.0, 135.0, 22.0 ],
					"presentation_rect" : [ 128.0, 694.0, 135.0, 22.0 ],
					"text" : "udpsend localhost 4001"
				}

			}
, 			{
				"box" : 				{
					"fontface" : 0,
					"fontsize" : 12.0,
					"id" : "obj-1",
					"linecount" : 6,
					"maxclass" : "o.expr.codebox",
					"numinlets" : 1,
					"numoutlets" : 2,
					"outlettype" : [ "FullPacket", "FullPacket" ],
					"patching_rect" : [ 128.0, 510.0, 558.0, 114.0 ],
					"presentation_rect" : [ 128.0, 510.0, 558.0, 114.0 ],
					"text" : "/radius = 20,\nmap(\n  lambda(a,\n    assign(\"/svgdraw/1\"+a+\"/draw/circle\", [value(a + \"/move/xy\"), /radius] )\n  ), /addrs\n)\n"
				}

			}
, 			{
				"box" : 				{
					"id" : "obj-56",
					"maxclass" : "message",
					"numinlets" : 2,
					"numoutlets" : 1,
					"outlettype" : [ "" ],
					"patching_rect" : [ 74.0, 75.0, 35.0, 22.0 ],
					"presentation_rect" : [ 74.0, 75.0, 35.0, 22.0 ],
					"text" : "clear"
				}

			}
, 			{
				"box" : 				{
					"id" : "obj-50",
					"maxclass" : "button",
					"numinlets" : 1,
					"numoutlets" : 1,
					"outlettype" : [ "bang" ],
					"parameter_enable" : 0,
					"patching_rect" : [ 236.5, 113.0, 24.0, 24.0 ],
					"presentation_rect" : [ 236.5, 113.0, 24.0, 24.0 ]
				}

			}
, 			{
				"box" : 				{
					"id" : "obj-47",
					"maxclass" : "newobj",
					"numinlets" : 1,
					"numoutlets" : 1,
					"outlettype" : [ "" ],
					"patching_rect" : [ 33.0, 179.0, 54.0, 22.0 ],
					"presentation_rect" : [ 33.0, 179.0, 54.0, 22.0 ],
					"text" : "o.accum"
				}

			}
, 			{
				"box" : 				{
					"id" : "obj-46",
					"maxclass" : "newobj",
					"numinlets" : 1,
					"numoutlets" : 2,
					"outlettype" : [ "FullPacket", "FullPacket" ],
					"patching_rect" : [ 134.0, 67.0, 128.0, 22.0 ],
					"presentation_rect" : [ 134.0, 67.0, 128.0, 22.0 ],
					"text" : "o.cond !emptybundle()"
				}

			}
, 			{
				"box" : 				{
					"id" : "obj-40",
					"maxclass" : "newobj",
					"numinlets" : 1,
					"numoutlets" : 1,
					"outlettype" : [ "" ],
					"patching_rect" : [ 134.0, 25.0, 133.0, 22.0 ],
					"presentation_rect" : [ 134.0, 25.0, 133.0, 22.0 ],
					"text" : "udpreceive 4002 cnmat"
				}

			}
 ],
		"lines" : [ 			{
				"patchline" : 				{
					"destination" : [ "obj-8", 0 ],
					"source" : [ "obj-1", 0 ]
				}

			}
, 			{
				"patchline" : 				{
					"destination" : [ "obj-14", 0 ],
					"source" : [ "obj-10", 0 ]
				}

			}
, 			{
				"patchline" : 				{
					"destination" : [ "obj-10", 0 ],
					"source" : [ "obj-11", 0 ]
				}

			}
, 			{
				"patchline" : 				{
					"destination" : [ "obj-13", 0 ],
					"source" : [ "obj-12", 0 ]
				}

			}
, 			{
				"patchline" : 				{
					"destination" : [ "obj-11", 0 ],
					"source" : [ "obj-13", 0 ]
				}

			}
, 			{
				"patchline" : 				{
					"destination" : [ "obj-8", 0 ],
					"source" : [ "obj-14", 0 ]
				}

			}
, 			{
				"patchline" : 				{
					"destination" : [ "obj-2", 0 ],
					"source" : [ "obj-15", 0 ]
				}

			}
, 			{
				"patchline" : 				{
					"destination" : [ "obj-2", 0 ],
					"source" : [ "obj-19", 0 ]
				}

			}
, 			{
				"patchline" : 				{
					"destination" : [ "obj-8", 0 ],
					"source" : [ "obj-20", 0 ]
				}

			}
, 			{
				"patchline" : 				{
					"destination" : [ "obj-5", 0 ],
					"source" : [ "obj-3", 0 ]
				}

			}
, 			{
				"patchline" : 				{
					"destination" : [ "obj-3", 0 ],
					"source" : [ "obj-4", 0 ]
				}

			}
, 			{
				"patchline" : 				{
					"destination" : [ "obj-46", 0 ],
					"source" : [ "obj-40", 0 ]
				}

			}
, 			{
				"patchline" : 				{
					"destination" : [ "obj-18", 1 ],
					"order" : 0,
					"source" : [ "obj-46", 0 ]
				}

			}
, 			{
				"patchline" : 				{
					"destination" : [ "obj-47", 0 ],
					"order" : 2,
					"source" : [ "obj-46", 0 ]
				}

			}
, 			{
				"patchline" : 				{
					"destination" : [ "obj-50", 0 ],
					"source" : [ "obj-46", 1 ]
				}

			}
, 			{
				"patchline" : 				{
					"destination" : [ "obj-7", 0 ],
					"order" : 1,
					"source" : [ "obj-46", 0 ]
				}

			}
, 			{
				"patchline" : 				{
					"destination" : [ "obj-6", 0 ],
					"source" : [ "obj-5", 0 ]
				}

			}
, 			{
				"patchline" : 				{
					"destination" : [ "obj-47", 0 ],
					"source" : [ "obj-56", 0 ]
				}

			}
, 			{
				"patchline" : 				{
					"destination" : [ "obj-1", 0 ],
					"source" : [ "obj-6", 0 ]
				}

			}
, 			{
				"patchline" : 				{
					"destination" : [ "obj-4", 0 ],
					"source" : [ "obj-7", 0 ]
				}

			}
, 			{
				"patchline" : 				{
					"destination" : [ "obj-17", 1 ],
					"order" : 0,
					"source" : [ "obj-8", 0 ]
				}

			}
, 			{
				"patchline" : 				{
					"destination" : [ "obj-2", 0 ],
					"order" : 1,
					"source" : [ "obj-8", 0 ]
				}

			}
 ],
		"dependency_cache" : [ 			{
				"name" : "o.accum.maxpat",
				"bootpath" : "~/Documents/dev-lib/CNMAT-odot/patchers/namespace",
				"patcherrelativepath" : "../../../../../CNMAT-odot/patchers/namespace",
				"type" : "JSON",
				"implicit" : 1
			}
, 			{
				"name" : "o.cond.mxo",
				"type" : "iLaX"
			}
, 			{
				"name" : "o.union.mxo",
				"type" : "iLaX"
			}
, 			{
				"name" : "o.expr.codebox.mxo",
				"type" : "iLaX"
			}
, 			{
				"name" : "o.explode.mxo",
				"type" : "iLaX"
			}
, 			{
				"name" : "o.route.mxo",
				"type" : "iLaX"
			}
, 			{
				"name" : "o.flatten.mxo",
				"type" : "iLaX"
			}
, 			{
				"name" : "o.select.mxo",
				"type" : "iLaX"
			}
, 			{
				"name" : "o.compose.mxo",
				"type" : "iLaX"
			}
 ],
		"autosave" : 0
	}

}
